# AST/ASF file generated using VICON BodyLanguage
# -----------------------------------------------
:version 1.10
:name VICON
:units
  mass 1.0
  length 0.45
  angle deg
:documentation
   .ast/.asf automatically generated from VICON data using
   VICON BodyBuilder and BodyLanguage model FoxedUp or BRILLIANT.MOD
:root
   order TX TY TZ RX RY RZ
   axis XYZ
   position 0 0 0  
   orientation 0 0 0 
:bonedata
  begin
     id 1 
     name lhipjoint
     direction 0.643824 -0.71708 0.266994 
     length 2.52133 
     axis 0 0 0  XYZ
  end
  begin
     id 2 
     name lfemur
     direction 0.34202 -0.939693 0  
     length 7.51824  
     axis 0 0 20  XYZ
    dof rx ry rz
    limits (-160.0 20.0)
           (-70.0 70.0)
           (-60.0 70.0)
  end
  begin
     id 3 
     name ltibia
     direction 0.34202 -0.939693 0   
     length 7.3685   
     axis 0 0 20   XYZ
    dof rx
    limits (-10.0 170.0)
  end
  begin
     id 4 
     name lfoot
     direction 0.105419 -0.289636 0.951314   
     length 2.20972   
     axis -90 7.62852e-016 20   XYZ
    dof rx rz
    limits (-45.0 90.0)
           (-70.0 20.0)
  end
  begin
     id 5 
     name ltoes
     direction 1.53549e-011 -4.21833e-011 1   
     length 1.10139   
     axis -90 7.62852e-016 20   XYZ
    dof rx
    limits (-90.0 20.0)
  end
  begin
     id 6 
     name rhipjoint
     direction -0.608823 -0.743445 0.276811   
     length 2.43192  
     axis 0 0 0  XYZ 
  end
  begin
     id 7 
     name rfemur
     direction -0.34202 -0.939693 0   
     length 7.69715   
     axis 0 0 -20   XYZ
    dof rx ry rz
    limits (-160.0 20.0)
           (-70.0 70.0)
           (-70.0 60.0)
  end
  begin
     id 8 
     name rtibia
     direction -0.34202 -0.939693 0   
     length 7.44924   
     axis 0 0 -20   XYZ
    dof rx
    limits (-10.0 170.0)
 end
 begin
     id 9 
     name rfoot
     direction -0.103614 -0.284677 0.953007   
     length 2.22623  
     axis -90 -7.62852e-016 -20   XYZ
    dof rx rz
    limits (-45.0 90.0)
           (-20.0 70.0)
  end
  begin
     id 10 
     name rtoes
     direction -1.53537e-011 -4.22026e-011 1   
     length 1.11   
     axis -90 -7.62852e-016 -20   XYZ
    dof rx
    limits (-90.0 20.0)
  end
  begin
     id 11 
     name lowerback
     direction -0.0101212 0.99662 -0.0815298   
     length 2.08277   
     axis 0 0 0   XYZ
    dof rx ry rz
    limits (-20.0 45.0)
           (-30.0 30.0)
           (-30.0 30.0)
  end
  begin
     id 12 
     name upperback
     direction 0.024314 0.999591 -0.0150645   
     length 2.08524   
     axis 0 0 0   XYZ
    dof rx ry rz
    limits (-20.0 45.0)
           (-30.0 30.0)
           (-30.0 30.0)
  end
  begin
     id 13 
     name thorax
     direction 0.0285959 0.999323 0.0231357   
     length 2.09645   
     axis 0 0 0   XYZ
    dof rx ry rz
    limits (-20.0 45.0)
           (-30.0 30.0)
           (-30.0 30.0)
  end
  begin
     id 14 
     name lowerneck
     direction -0.065512 0.979301 0.191515   
     length 1.63798   
     axis 0 0 0   XYZ
    dof rx ry rz
    limits (-20.0 45.0)
           (-30.0 30.0)
           (-30.0 30.0)
  end
  begin
     id 15 
     name upperneck
     direction 0.0498479 0.98191 -0.182667   
     length 1.68731   
     axis 0 0 0   XYZ
    dof rx ry rz
    limits (-20.0 45.0)
           (-30.0 30.0)
           (-30.0 30.0)
  end
  begin
     id 16
     name head
     direction 0.0230358 0.996257 -0.0833175  
     length 1.69785  
     axis 0 0 0   XYZ
    dof rx ry rz
    limits (-20.0 45.0)
           (-30.0 30.0)
           (-30.0 30.0)
  end
  begin
     id 17 
     name lclavicle
     direction 0.967963 0.201165 -0.150269  
     length 3.63976  
     axis 0 0 0   XYZ
    dof ry rz
    limits (-20.0 10.0)
           (0.0 20.0)
  end
  begin
     id 18 
     name lhumerus
     direction 1 -4.48954e-011 -2.92837e-028   
     length 5.32462   
     axis 180 -30 -90   XYZ
    dof rx ry rz
    limits (-60.0 90.0)
           (-90.0 90.0)
           (-90.0 90.0)
  end
  begin
     id 19
     name lradius
     direction 1 -4.48958e-011 -6.39511e-027   
     length 3.48402   
     axis 180 -30 -90   XYZ
    dof rx
    limits (-10.0 170.0)
  end
  begin
     id 20
     name lwrist
     direction 1 -4.48975e-011 -1.1413e-026   
     length 1.74201   
     axis 6.88575e-015 90 90   XYZ
    dof ry
    limits (-180.0 0.0)
 end
  begin
     id 21 
     name lhand
     direction 1 -4.48899e-011 -2.28192e-026   
     length 0.572476   
     axis 1.45643e-014 90 90   XYZ
    dof rx rz
    limits (-90.0 90.0)
           (-45.0 45.0)
  end
  begin
     id 22 
     name lfingers
     direction 1 -4.49155e-011 -4.5684e-026   
     length 0.461545   
     axis 2.91283e-014 90 90   XYZ
    dof rx
    limits (0.0 90.0)
  end
  begin
     id 23
     name lthumb
     direction 0.707107 -6.34943e-011 0.707107   
     length 0.662688   
     axis -90 45 -2.25915e-014   XYZ
    dof rx rz
    limits (-45.0 45.0)
           (-45.0 45.0)
  end
  begin
     id 24 
     name rclavicle
     direction -0.964103 0.264019 -0.0282629   
     length 3.54491  
     axis 0 0 0   XYZ 
    dof ry rz
    limits (-10.0 20.0)
           (-20.0 0.0)
  end
  begin
     id 25 
     name rhumerus
     direction -1 -4.48964e-011 -2.45032e-027  
     length 5.33589   
     axis 180 30 90   XYZ
    dof rx ry rz
    limits (-90.0 60.0)
           (-90.0 90.0)
           (-90.0 90.0)
  end
  begin
     id 26 
     name rradius
     direction -1 -4.48987e-011 -1.55093e-027   
     length 3.64134   
     axis 180 30 90   XYZ
    dof rx
    limits (-10.0 170.0)
  end
  begin
     id 27 
     name rwrist
     direction -1 -4.4897e-011 -1.14128e-026   
     length 1.82067   
     axis 6.88575e-015 -90 -90   XYZ
    dof ry
    limits (-180.0 0.0)
  end
  begin
     id 28
     name rhand
     direction -1 -4.49021e-011 -2.28301e-026   
     length 0.734811   
     axis 1.45643e-014 -90 -90   XYZ
    dof rx rz
    limits (-90.0 90.0)
           (-45.0 45.0)
  end
  begin
     id 29
     name rfingers
     direction -1 -4.48862e-011 -4.56319e-026   
     length 0.592424   
     axis 2.91283e-014 -90 -90   XYZ
    dof rx
    limits (0.0 90.0)
  end
  begin
     id 30
     name rthumb
     direction -0.707107 -6.34978e-011 0.707107   
     length 0.850605   
     axis -90 -45 2.25915e-014   XYZ
    dof rx rz
    limits (-45.0 45.0)
           (-45.0 45.0)
  end
:hierarchy
  begin
    root lhipjoint rhipjoint lowerback
    lhipjoint lfemur
    lfemur ltibia
    ltibia lfoot
    lfoot ltoes
    rhipjoint rfemur
    rfemur rtibia
    rtibia rfoot
    rfoot rtoes
    lowerback upperback
    upperback thorax
    thorax lowerneck lclavicle rclavicle
    lowerneck upperneck
    upperneck head
    lclavicle lhumerus
    lhumerus lradius
    lradius lwrist
    lwrist lhand lthumb
    lhand lfingers
    rclavicle rhumerus
    rhumerus rradius
    rradius rwrist
    rwrist rhand rthumb
    rhand rfingers
  end

#!OML:ASF F:\VICON\USERDATA\INSTALL\rory3\rory3.ASF
:FULLY-SPECIFIED
:DEGREES
33
root -0.0706609 17.989 -0.824763 2.55382 -11.4453 1.40811
lowerback -1.37917 -2.06057 -3.33739
upperback -1.22571 -2.71685 2.13966
thorax -0.22735 -1.33581 4.03582
lowerneck -21.9381 1.33396 -8.02289
upperneck 33.8919 4.86941 0.856374
head 15.4096 1.06466 2.66947
rclavicle -1.22175e-014 7.95139e-016
rhumerus -32.4528 -2.97613 -81.5022
rradius 31.7896
rwrist 19.6044
rhand -17.6134 8.04761
rfingers 7.12502
rthumb 8.64346 -21.7554
lclavicle -1.22175e-014 7.95139e-016
lhumerus -11.4601 -18.2982 91.5231
lradius 60.6752
lwrist 2.41395
lhand -34.829 23.7215
lfingers 7.12502
lthumb -7.97974 53.5508
rfemur -8.80219 9.4922 14.8306
rtibia 25.4091
rfoot -16.0145 -3.26156
rtoes 4.12624
lfemur 1.07547 -2.09445 -21.9729
ltibia 10.9377
lfoot -10.1601 7.09159
ltoes -11.9881
34
root -0.0712996 17.9884 -0.825532 2.57951 -11.4852 1.37988
lowerback -1.39704 -2.10662 -3.34638
upperback -1.23686 -2.77785 2.17987
thorax -0.220649 -1.36626 4.0808
lowerneck -21.9258 1.42462 -8.00424
upperneck 33.8934 5.03106 0.762911
head 15.4031 1.12067 2.6563
rclavicle -4.90101e-014 -2.38542e-015
rhumerus -32.3704 -2.89551 -81.5268
rradius 31.7501
rwrist 19.7217
rhand -17.6307 8.07048
rfingers 7.12502
rthumb 8.62672 -21.7333
lclavicle -4.90101e-014 -2.38542e-015
lhumerus -11.5313 -18.0585 91.5342
lradius 60.9506
lwrist 2.48775
lhand -34.9745 23.6859
lfingers 7.12502
lthumb -8.12017 53.5099
rfemur -8.84769 9.53934 14.861
rtibia 25.444
rfoot -16.0231 -3.23636
rtoes 4.35583
lfemur 1.08439 -2.06094 -21.9384
ltibia 10.8849
lfoot -10.1125 7.08099
ltoes -12.0556
35
root -0.0727417 17.9888 -0.825614 2.61242 -11.5111 1.35524
lowerback -1.4267 -2.14264 -3.33024
upperback -1.25619 -2.82537 2.19254
thorax -0.219505 -1.38985 4.0831
lowerneck -21.8635 1.47143 -8.01181
upperneck 33.8531 5.11214 0.715289
head 15.3671 1.14923 2.64962
rclavicle -2.96123e-014 2.38542e-015
rhumerus -32.2949 -2.8686 -81.5703
rradius 31.6873
rwrist 19.7632
rhand -17.6359 8.01955
rfingers 7.12502
rthumb 8.62171 -21.7844
lclavicle -2.96123e-014 2.38542e-015
lhumerus -11.6154 -17.8915 91.5089
lradius 61.2713
lwrist 2.47297
lhand -34.9025 23.5289
lfingers 7.12502
lthumb -8.05066 53.3555
rfemur -8.89341 9.58383 14.8908
rtibia 25.4823
rfoot -16.089 -3.21156
rtoes 4.38509
lfemur 1.05691 -2.00832 -21.8998
ltibia 10.8788
lfoot -10.1152 7.02045
ltoes -12.1
36
root -0.0734147 17.988 -0.824742 2.59584 -11.5455 1.44177
lowerback -1.41897 -2.16907 -3.40195
upperback -1.28671 -2.86022 2.15691
thorax -0.250293 -1.40578 4.08699
lowerneck -21.7463 1.51303 -8.01771
upperneck 33.8037 5.16566 0.699313
head 15.3141 1.1725 2.64929
rclavicle -1.57083e-014 1.27222e-014
rhumerus -32.2823 -2.84791 -81.6159
rradius 31.604
rwrist 19.7663
rhand -17.6978 8.08165
rfingers 7.12502
rthumb 8.56194 -21.7248
lclavicle -1.57083e-014 1.27222e-014
lhumerus -11.735 -17.8069 91.4615
lradius 61.6335
lwrist 2.20011
lhand -34.8996 23.823
lfingers 7.12502
lthumb -8.04789 53.6498
rfemur -8.89741 9.57925 14.7994
rtibia 25.5055
rfoot -16.1064 -3.18095
rtoes 4.00181
lfemur 1.03238 -1.9641 -21.9904
ltibia 10.9469
lfoot -10.1842 7.01286
ltoes -12.1261
37
root -0.0742501 17.9859 -0.826353 2.56068 -11.6225 1.45384
lowerback -1.32937 -2.16367 -3.41422
upperback -1.31105 -2.85545 2.13932
thorax -0.326266 -1.40127 4.08017
lowerneck -21.66 1.55314 -8.00391
upperneck 33.7477 5.21561 0.675514
head 15.2663 1.19579 2.64227
rclavicle 3.90868e-014 -8.74653e-015
rhumerus -32.2907 -2.87789 -81.6259
rradius 31.5488
rwrist 19.7539
rhand -17.7421 8.22276
rfingers 7.12502
rthumb 8.51922 -21.5854
lclavicle 3.90868e-014 -8.74653e-015
lhumerus -11.8407 -17.8167 91.3952
lradius 62.0745
lwrist 2.05061
lhand -34.9777 24.0635
lfingers 7.12502
lthumb -8.12329 53.8873
rfemur -8.88305 9.63229 14.7948
rtibia 25.5097
rfoot -16.0466 -3.15842
rtoes 3.91207
lfemur 1.02161 -1.86862 -22.0021
ltibia 11.0374
lfoot -10.2083 7.02742
ltoes -12.2049
38
root -0.0745651 17.9855 -0.827373 2.5596 -11.7319 1.35721
lowerback -1.27545 -2.15273 -3.32392
upperback -1.3178 -2.84305 2.15902
thorax -0.367844 -1.39458 4.05233
lowerneck -21.5981 1.57563 -8.00754
upperneck 33.673 5.25463 0.633815
head 15.2167 1.2101 2.62873
rclavicle -5.29668e-014 1.82882e-014
rhumerus -32.3361 -2.89047 -81.6312
rradius 31.6082
rwrist 19.7729
rhand -17.76 8.25366
rfingers 7.12502
rthumb 8.50193 -21.5552
lclavicle -5.29668e-014 1.82882e-014
lhumerus -11.9363 -17.8374 91.3288
lradius 62.6245
lwrist 2.06534
lhand -35.0124 24.1722
lfingers 7.12502
lthumb -8.15673 53.9948
rfemur -8.90975 9.74206 14.9025
rtibia 25.5194
rfoot -16.011 -3.17849
rtoes 3.88729
lfemur 0.996249 -1.80394 -21.9039
ltibia 11.137
lfoot -10.2106 7.11905
ltoes -12.2383
39
root -0.0749417 17.9863 -0.826582 2.59402 -11.7998 1.22862
lowerback -1.27637 -2.16062 -3.21545
upperback -1.30703 -2.85433 2.18908
thorax -0.358782 -1.40127 4.02179
lowerneck -21.5888 1.59741 -7.97079
upperneck 33.5934 5.28585 0.582653
head 15.1788 1.22454 2.60424
rclavicle 1.08804e-014 -1.66979e-014
rhumerus -32.4355 -2.85351 -81.6682
rradius 31.8196
rwrist 19.7611
rhand -17.7511 8.15469
rfingers 7.12502
rthumb 8.51053 -21.6538
lclavicle 1.08804e-014 -1.66979e-014
lhumerus -12.0297 -17.9045 91.2237
lradius 63.3094
lwrist 2.08986
lhand -34.9974 24.6831
lfingers 7.12502
lthumb -8.14231 54.5063
rfemur -8.93549 9.84332 15.0416
rtibia 25.5176
rfoot -16.0267 -3.19335
rtoes 4.30537
lfemur 0.929846 -1.80906 -21.7643
ltibia 11.2686
lfoot -10.3101 7.16832
ltoes -12.265
40
root -0.0755748 17.9854 -0.827254 2.57093 -11.864 1.23834
lowerback -1.24534 -2.15534 -3.25178
upperback -1.28301 -2.8478 2.17899
thorax -0.350885 -1.39834 4.03261
lowerneck -21.6145 1.60955 -7.91184
upperneck 33.5615 5.30044 0.532124
head 15.1728 1.23195 2.57556
rclavicle -1.50746e-014 -2.38542e-015
rhumerus -32.5386 -2.87374 -81.6753
rradius 32.0148
rwrist 19.7571
rhand -17.7074 7.83721
rfingers 7.12502
rthumb 8.55272 -21.9696
lclavicle -1.50746e-014 -2.38542e-015
lhumerus -12.1115 -18.0514 91.1513
lradius 64.0356
lwrist 2.2737
lhand -35.0437 25.0837
lfingers 7.12502
lthumb -8.18692 54.9051
rfemur -8.92103 9.91341 15.0368
rtibia 25.5146
rfoot -16.0202 -3.22871
rtoes 4.45667
lfemur 0.903474 -1.78309 -21.7702
ltibia 11.3677
lfoot -10.3614 7.19192
ltoes -12.4578
41
root -0.0756664 17.9849 -0.828701 2.5437 -11.9127 1.25128
lowerback -1.18648 -2.13654 -3.27235
upperback -1.26488 -2.82405 2.15429
thorax -0.367708 -1.38629 4.02105
lowerneck -21.6465 1.58946 -7.92505
upperneck 33.5374 5.26432 0.569179
head 15.1684 1.22147 2.58683
rclavicle 7.39375e-014 -2.22639e-014
rhumerus -32.5972 -2.96049 -81.6584
rradius 32.1076
rwrist 19.7231
rhand -17.7536 7.57281
rfingers 7.12502
rthumb 8.5081 -22.2358
lclavicle 7.39375e-014 -2.22639e-014
lhumerus -12.1945 -18.2701 91.078
lradius 64.7526
lwrist 2.48018
lhand -35.1504 25.2717
lfingers 7.12502
lthumb -8.28994 55.0891
rfemur -8.92154 9.94208 15.0303
rtibia 25.5281
rfoot -16.0073 -3.23747
rtoes 4.55869
lfemur 0.910567 -1.74552 -21.7822
ltibia 11.3954
lfoot -10.3417 7.21715
ltoes -12.231
42
root -0.0755784 17.9858 -0.828141 2.59651 -11.9918 1.24918
lowerback -1.21701 -2.11325 -3.27728
upperback -1.25546 -2.79213 2.13621
thorax -0.34458 -1.37094 4.00419
lowerneck -21.6977 1.57256 -7.91742
upperneck 33.4938 5.2387 0.572011
head 15.161 1.21372 2.58211
rclavicle -2.0047e-014 9.54166e-015
rhumerus -32.6688 -2.84884 -81.7162
rradius 32.2667
rwrist 19.5154
rhand -17.9147 7.44243
rfingers 7.12502
rthumb 8.3527 -22.3724
lclavicle -2.0047e-014 9.54166e-015
lhumerus -12.3049 -18.3358 91.0136
lradius 65.5746
lwrist 2.46927
lhand -35.0316 25.5692
lfingers 7.12502
lthumb -8.17525 55.391
rfemur -9.02535 9.9947 15.0178
rtibia 25.5609
rfoot -15.9831 -3.21783
rtoes 4.56828
lfemur 0.880998 -1.77843 -21.7928
ltibia 11.3688
lfoot -10.2985 7.35748
ltoes -12.1072
